.
 
http://www.scenetime.com    -  Hottest private tracker on the net. !!!

New release on http://www.scenetime.com

        Seed back for speed


...................................NFO:.................................................[IMG]http://img194.imageshack.us/img194/766/thedescendants2011poste.jpg[/IMG]


[color=blue][size=5][b]The.Descendants.2011.DVDScr.XVID.AC3.HQ.Hive-CM8[/b][/size][/color]


[b] Thx Hive

CM8 Doing it right the first time :D


Source: original SAG stream - big thx to kk

Encode: 
File was very nice to begin with. 
fixed aspect and framerate and added sharpness, brightness and denoise.
looks sharp and in sync btw.
got very nice
enjoy

Video: 720x304 @bitrate 1500 2pass
Audio: English AC3 2.0 Stereo
Sample: Yes, included[/b]
 
http://www.imdb.com/title/tt1033575/


General
Complete name                  : The.Descendants.2011.DVDScr.XVID.AC3.HQ.Hive-CM8.avi
Format                         : AVI
Format/Info                    : Audio Video Interleave
File size                      : 1.42 GiB
Duration                       : 1h 54mn
Overall bit rate               : 1 765 Kbps
Writing application            : Nandub v1.0rc2
Writing library                : Nandub build 1853/release

Video
ID                             : 0
Format                         : MPEG-4 Visual
Format profile                 : Advanced Simple@L5
Format settings, BVOP          : 2
Format settings, QPel          : Yes
Format settings, GMC           : No warppoints
Format settings, Matrix        : Default (H.263)
Muxing mode                    : Packed bitstream
Codec ID                       : XVID
Codec ID/Hint                  : XviD
Duration                       : 1h 54mn
Bit rate                       : 1 500 Kbps
Width                          : 720 pixels
Height                         : 304 pixels
Display aspect ratio           : 2.35:1
Frame rate                     : 23.976 fps
Color space                    : YUV
Chroma subsampling             : 4:2:0
Bit depth                      : 8 bits
Scan type                      : Progressive
Compression mode               : Lossy
Bits/(Pixel*Frame)             : 0.286
Stream size                    : 1.20 GiB (85%)
Writing library                : XviD 1.2.1 (UTC 2008-12-04)

Audio
ID                             : 1
Format                         : AC-3
Format/Info                    : Audio Coding 3
Mode extension                 : CM (complete main)
Codec ID                       : 2000
Duration                       : 1h 54mn
Bit rate mode                  : Constant
Bit rate                       : 256 Kbps
Channel(s)                     : 2 channels
Channel positions              : Front: L R
Sampling rate                  : 48.0 KHz
Bit depth                      : 16 bits
Compression mode               : Lossy
Stream size                    : 210 MiB (15%)
Alignment                      : Split accross interleaves
Interleave, duration           : 42 ms (1.00 video frame)
Interleave, preload duration   : 500 ms


Plot:
An Hawaiian land baron tries to re-connect with his two daughters after
his wife is seriously injured in a boating accident.


Cast:
George Clooney     ...    Matt King
Shailene Woodley   ...    Alexandra King
Amara Miller       ...    Scottie King
Beau Bridges       ...    Cousin Hugh


[img]http://img196.imageshack.us/img196/8002/37968785.png[/img]


Greetz

ViSiON,SPK,SceneLovers,PRESTiGE,SANTi,3LT0N,YanKeeS,MAGNET,THC,T0XiC,LKRG,Feel-Free,FLAWL3SS,
WBZ,BHRG,SiC,26K,NOVA,D2U,SeToNeUp,TED,Rapeseed,SAFC,goldadvance,KaN1vE,Unevano,Pinnz,Wayne
Mr Hive,and most P2P groups
Great Work Guys :D

LOOKING FOR ANYTHING YOU WANT TO LOOK AND SOUND BETTER

CM8@hushmail.com